<svg xmlns="http://www.w3.org/2000/svg" xmlns:svgjs="http://svgjs.com/svgjs" xmlns:xlink="http://www.w3.org/1999/xlink" width="288" height="288"><svg xmlns="http://www.w3.org/2000/svg" width="288" height="288" class="illustration styles_illustrationTablet__1DWOa" data-name="Layer 1" viewBox="0 0 400 300"><path fill="#2764ff" d="M101 130.42a1 1 0 01-.52-.15l-1.28-.78a1 1 0 01-.33-1.37 1 1 0 011.37-.34l1.28.78a1 1 0 01.34 1.38A1 1 0 01101 130.42zM191.07 185.18a1 1 0 01-.52-.14l-2.6-1.58a1 1 0 01-.33-1.38 1 1 0 011.37-.33l2.6 1.58a1 1 0 01.33 1.37A1 1 0 01191.07 185.18zm-11.26-6.84a1 1 0 01-.52-.15l-2.6-1.58a1 1 0 01-.33-1.37 1 1 0 011.37-.34l2.6 1.58a1 1 0 01.33 1.38A1 1 0 01179.81 178.34zm-11.26-6.85a1.07 1.07 0 01-.52-.14l-2.6-1.58a1 1 0 01-.33-1.38 1 1 0 011.37-.33l2.6 1.58a1 1 0 01-.52 1.85zm-11.26-6.84a1 1 0 01-.52-.15l-2.6-1.58a1 1 0 111-1.71l2.6 1.58a1 1 0 01-.52 1.86zM146 157.8a1 1 0 01-.52-.15l-2.6-1.58a1 1 0 111-1.7l2.6 1.58a1 1 0 01-.52 1.85zM134.76 151a1 1 0 01-.51-.14l-2.6-1.58a1 1 0 111-1.71l2.59 1.58a1 1 0 01.34 1.37A1 1 0 01134.76 151zm-11.26-6.84A1 1 0 01123 144l-2.59-1.58a1 1 0 01-.34-1.37 1 1 0 011.38-.34l2.59 1.58a1 1 0 01-.52 1.86zm-11.26-6.85a1 1 0 01-.52-.14l-2.59-1.58a1 1 0 111-1.71l2.6 1.58a1 1 0 01-.52 1.85zM201 191.23a.92.92 0 01-.51-.15l-1.29-.78a1 1 0 01-.33-1.37 1 1 0 011.37-.34l.75.46.73-.48a1 1 0 011.09 1.68l-1.26.82A1.1 1.1 0 01201 191.23zM210.4 185.15a1 1 0 01-.54-1.84l2.43-1.57a1 1 0 111.09 1.68L210.94 185A1 1 0 01210.4 185.15zM221 178.32a1 1 0 01-.55-1.84l2.44-1.58a1 1 0 011.09 1.68l-2.44 1.58A1.09 1.09 0 01221 178.32zm10.56-6.84a1 1 0 01-.84-.46 1 1 0 01.29-1.38l2.44-1.58a1 1 0 111.09 1.68l-2.44 1.58A1 1 0 01231.53 171.48zm10.56-6.84a1 1 0 01-.54-1.84l2.44-1.58a1 1 0 011.08 1.68l-2.43 1.58A1 1 0 01242.09 164.64zm10.57-6.84a1 1 0 01-.55-1.84l2.44-1.57a1 1 0 011.09 1.67l-2.44 1.58A1 1 0 01252.66 157.8zM263.22 151a1 1 0 01-.54-1.84l2.43-1.58a1 1 0 111.09 1.68l-2.44 1.58A1 1 0 01263.22 151zm10.57-6.84a1 1 0 01-.84-.46 1 1 0 01.29-1.38l2.44-1.58a1 1 0 011.09 1.68L274.33 144A1 1 0 01273.79 144.13zm10.56-6.84a1 1 0 01-.54-1.84l2.43-1.58a1 1 0 111.09 1.68l-2.44 1.58A1 1 0 01284.35 137.29zM294.91 130.45a1 1 0 01-.54-1.84l1.26-.81a1 1 0 011.09 1.68l-1.26.81A1 1 0 01294.91 130.45z" class="colore6e6e6 svgShape"/><polygon fill="#2261ff" points="248.16 183.8 199.89 155.93 151.61 183.8 117.68 183.8 117.68 203.39 199.89 250.86 282.1 203.39 282.1 183.8 248.16 183.8" class="colorffd200 svgShape"/><polygon fill="#fff" points="248.16 183.8 199.89 155.93 151.61 183.8 117.68 183.8 117.68 203.39 199.89 250.86 282.1 203.39 282.1 183.8 248.16 183.8" class="colorfff svgShape" opacity=".44"/><polygon fill="#2261ff" points="117.68 183.8 199.89 231.27 282.1 183.8 199.89 136.34 117.68 183.8" class="colorffd200 svgShape"/><polygon fill="#0d52ff" points="316.31 124.35 296.17 112.72 276.03 124.35 261.88 124.35 261.88 132.52 296.17 152.32 330.47 132.52 330.47 124.35 316.31 124.35" class="color24285b svgShape"/><polygon fill="#fff" points="316.31 124.35 296.17 112.72 276.03 124.35 261.88 124.35 261.88 132.52 296.17 152.32 330.47 132.52 330.47 124.35 316.31 124.35" class="colorfff svgShape" opacity=".22"/><polygon fill="#0d52ff" points="261.88 124.35 296.17 144.15 330.47 124.35 296.17 104.55 261.88 124.35" class="color24285b svgShape"/><polygon fill="#0d52ff" points="119.84 124.35 99.7 112.72 79.56 124.35 65.4 124.35 65.4 132.52 99.7 152.32 134 132.52 134 124.35 119.84 124.35" class="color24285b svgShape"/><polygon fill="#fff" points="119.84 124.35 99.7 112.72 79.56 124.35 65.4 124.35 65.4 132.52 99.7 152.32 134 132.52 134 124.35 119.84 124.35" class="colorfff svgShape" opacity=".22"/><polygon fill="#0d52ff" points="65.4 124.35 99.7 144.15 134 124.35 99.7 104.55 65.4 124.35" class="color24285b svgShape"/><ellipse cx="197.99" cy="185.3" class="color000 svgShape" opacity=".09" rx="31.7" ry="20.56"/><ellipse cx="296.17" cy="123.59" class="color000 svgShape" opacity=".09" rx="14.6" ry="9.47"/><ellipse cx="98.49" cy="123.59" class="color000 svgShape" opacity=".09" rx="14.6" ry="9.47"/><polygon fill="#0d52ff" points="150.73 120.04 197.99 96.42 245.25 120.04 197.99 153.66 150.73 120.04" class="color24285b svgShape"/><polygon fill="#5d8bff" points="150.73 109.86 197.99 139.26 197.99 46.08 150.73 109.86" class="colorfeb019 svgShape"/><polygon fill="#5d8bff" points="245.25 109.86 197.99 139.26 197.99 46.08 245.25 109.86" class="colorfeb019 svgShape"/><polygon fill="#fff" points="245.25 109.86 197.99 139.26 197.99 46.08 245.25 109.86" class="colorfff svgShape" opacity=".44"/><polygon fill="#5d8bff" points="150.73 120.04 197.99 153.66 197.99 185.94 150.73 120.04" class="colorfeb019 svgShape"/><polygon fill="#5d8bff" points="245.25 120.04 197.99 153.66 197.99 185.94 245.25 120.04" class="colorfeb019 svgShape"/><polygon fill="#fff" points="245.25 120.04 197.99 153.66 197.99 185.94 245.25 120.04" class="colorfff svgShape" opacity=".44"/><polygon fill="#0d52ff" points="272.6 91.2 296.59 79.2 320.58 91.2 296.59 108.27 272.6 91.2" class="color24285b svgShape"/><polygon fill="#5d8bff" points="272.6 86.03 296.59 100.95 296.59 53.65 272.6 86.03" class="colorfeb019 svgShape"/><polygon fill="#5d8bff" points="320.58 86.03 296.59 100.95 296.59 53.65 320.58 86.03" class="colorfeb019 svgShape"/><polygon fill="#fff" points="320.58 86.03 296.59 100.95 296.59 53.65 320.58 86.03" class="colorfff svgShape" opacity=".44"/><polygon fill="#5d8bff" points="272.6 91.2 296.59 108.27 296.59 124.65 272.6 91.2" class="colorfeb019 svgShape"/><polygon fill="#5d8bff" points="320.58 91.2 296.59 108.27 296.59 124.65 320.58 91.2" class="colorfeb019 svgShape"/><polygon fill="#fff" points="320.58 91.2 296.59 108.27 296.59 124.65 320.58 91.2" class="colorfff svgShape" opacity=".44"/><polygon fill="#0d52ff" points="75.71 91.2 99.7 79.2 123.69 91.2 99.7 108.27 75.71 91.2" class="color24285b svgShape"/><polygon fill="#5d8bff" points="75.71 86.03 99.7 100.95 99.7 53.65 75.71 86.03" class="colorfeb019 svgShape"/><polygon fill="#5d8bff" points="123.69 86.03 99.7 100.95 99.7 53.65 123.69 86.03" class="colorfeb019 svgShape"/><polygon fill="#fff" points="123.69 86.03 99.7 100.95 99.7 53.65 123.69 86.03" class="colorfff svgShape" opacity=".44"/><polygon fill="#5d8bff" points="75.71 91.2 99.7 108.27 99.7 124.65 75.71 91.2" class="colorfeb019 svgShape"/><polygon fill="#5d8bff" points="123.69 91.2 99.7 108.27 99.7 124.65 123.69 91.2" class="colorfeb019 svgShape"/><polygon fill="#fff" points="123.69 91.2 99.7 108.27 99.7 124.65 123.69 91.2" class="colorfff svgShape" opacity=".44"/></svg></svg>