<?xml version="1.0" standalone="no"?>
<!DOCTYPE svg PUBLIC "-//W3C//DTD SVG 1.0//EN" "http://www.w3.org/TR/2001/REC-SVG-20010904/DTD/svg10.dtd">
<svg xmlns="http://www.w3.org/2000/svg" xmlns:xlink="http://www.w3.org/1999/xlink" id="body_1" width="948" height="948">

<g transform="matrix(3.2916667 0 0 3.2916667 0 0)">
	<g transform="matrix(0.72 0 0 0.72 -0 36)">
        <path d="M101 130.42L99.72 129.64C 100.17851 129.8241 100.43384 130.31546 100.32095 130.79648C 100.20807 131.27748 99.7608 131.60396 99.268265 131.56485C 98.77573 131.52576 98.385574 131.1328 98.35 130.64L98.35 130.64L101 130.42L99.72 129.64L99.63 131.42L101 130.42L99.72 129.64L99.63 131.42L101 130.42L99.72 129.64L99.63 131.42L101 130.42zM191.07 185.18L188.47 183.59999C 188.92464 183.78844 189.17456 184.27966 189.05923 184.7581C 188.94391 185.23656 188.4976 185.55995 188.00705 185.52057C 187.51648 185.48117 187.1275 185.0907 187.09 184.59999L187.09 184.59999L191.07 185.18L188.47 183.59999L189.69 186.18L191.07 185.18L188.47 183.59999L189.69 186.18L191.07 185.18L188.47 183.59999L189.69 186.18zM179.81001 178.34L177.21 176.76C 177.66852 176.94409 177.92386 177.43544 177.81097 177.91646C 177.69807 178.39748 177.25081 178.72395 176.75829 178.68484C 176.26575 178.64575 175.8756 178.25279 175.84001 177.76L175.84001 177.76L179.81001 178.34L177.21 176.76L178.44002 179.34L179.81001 178.34L177.21 176.76L178.44002 179.34L179.81001 178.34L177.21 176.76L178.44002 179.34zM168.55002 171.48999L165.95001 169.90999C 166.40465 170.09843 166.65457 170.58966 166.53925 171.0681C 166.42392 171.54655 165.97762 171.86995 165.48706 171.83057C 164.99649 171.79117 164.60751 171.4007 164.57 170.90999L164.57 170.90999L168.55002 171.48999L165.95001 169.90999L167.17001 172.48999L168.55002 171.48999L165.95001 169.90999L167.17001 172.48999zM157.29002 164.65L154.69002 163.06999L157.29002 164.65L154.69002 163.06999L157.29002 164.65L154.69002 163.06999L157.29002 164.65zM146 157.8L143.4 156.22L146 157.8L143.4 156.22L146 157.8L143.4 156.22L146 157.8zM134.76 151L132.15999 149.42L134.76 151L132.15999 149.42L134.74998 151L134.76 151L132.15999 149.42L134.74998 151L134.76 151L132.15999 149.42L134.74998 151zM123.49999 144.16L120.909996 142.58C 121.3685 142.7641 121.623825 143.25546 121.51094 143.73648C 121.398056 144.21748 120.95079 144.54396 120.45825 144.50485C 119.96571 144.46576 119.57556 144.0728 119.53999 143.58L119.53999 143.58L123.49999 144.16L120.909996 142.58L122.12999 145.16L123.49999 144.16L120.909996 142.58L122.12999 145.16zM112.23999 137.31L109.649994 135.73L112.23999 137.31L109.649994 135.73L112.24999 137.31L112.23999 137.31L109.649994 135.73L112.24999 137.31zM201 191.23L199.71 190.45C 200.16852 190.6341 200.42386 191.12544 200.31097 191.60646C 200.19807 192.08748 199.75081 192.41396 199.25829 192.37485C 198.76575 192.33575 198.3756 191.9428 198.34001 191.45L198.34001 191.45L201 191.23L199.71 190.45L199.09001 191.91L199.82 191.43001L201 191.23L199.71 190.45L199.09001 191.91L199.82 191.43001L198.56001 192.25002L201 191.23L199.71 190.45L199.09001 191.91L199.82 191.43001L198.56001 192.25002zM210.4 185.15L212.82999 183.57999L210.4 185.15L212.82999 183.57999L210.94 185L210.4 185.15L212.82999 183.57999L210.94 185zM221 178.32L223.44 176.74L221 178.32L223.44 176.74L221 178.32L223.44 176.74L221 178.32zM231.56 171.48001C 231.93489 171.2466 232.41852 171.28676 232.7498 171.57881C 233.08107 171.87085 233.18155 172.34563 232.997 172.74684C 232.81242 173.14806 232.38654 173.3807 231.94922 173.31918C 231.51189 173.25768 231.1667 172.91656 231.09999 172.48001L231.09999 172.48001L231.56 171.48001L233.54 170.90001L231.56 171.48001L233.54 170.90001L231.09999 172.48001L231.56 171.48001L233.54 170.90001L231.09999 172.48001zM242.12 164.64001L244.56 163.06001L242.12 164.64001L244.56 163.06001L242.13 164.64001L242.12 164.64001L244.56 163.06001L242.13 164.64001zM252.69 157.80002L255.13 156.23001L252.69 157.80002L255.13 156.23001L252.69 157.81001L252.69 157.80002L255.13 156.23001L252.69 157.81001zM263.22 151L265.65 149.42L263.22 151L265.65 149.42L263.21 151L263.22 151L265.65 149.42L263.21 151zM273.79 144.16C 274.1649 143.92657 274.64853 143.96674 274.9798 144.25877C 275.31107 144.55083 275.41156 145.02559 275.22702 145.4268C 275.04245 145.82803 274.61655 146.06067 274.17923 145.99916C 273.7419 145.93765 273.39673 145.59656 273.33002 145.16L273.33002 145.16L273.79 144.16L275.77002 143.58L273.79 144.16L275.77002 143.58L274.33 144L273.79 144.16L275.77002 143.58L274.33 144zM284.35 137.32L286.78 135.74L284.35 137.32L286.78 135.74L284.34 137.32L284.35 137.32L286.78 135.74L284.34 137.32zM294.91 130.45L296.17 129.64L294.91 130.45L296.17 129.64L294.91 130.45L296.17 129.64L294.91 130.45z" stroke="none" fill="#279EFF" fill-rule="nonzero" />
        <path d="M248.16 183.8L199.89 155.93L151.61 183.8L117.68 183.8L117.68 203.39L199.89 250.86L282.1 203.39L282.1 183.8L248.16 183.8" stroke="none" fill="#229CFF" fill-rule="nonzero" />
        <path d="M248.16 183.8L199.89 155.93L151.61 183.8L117.68 183.8L117.68 203.39L199.89 250.86L282.1 203.39L282.1 183.8L248.16 183.8" stroke="none" fill="#FFFFFF" fill-rule="nonzero" fill-opacity="0.4392157" />
        <path d="M117.68 183.8L199.89 231.27L282.1 183.8L199.89 136.34L117.68 183.8" stroke="none" fill="#229CFF" fill-rule="nonzero" />
        <path d="M316.31 124.35L296.17 112.72L276.03 124.35L261.88 124.35L261.88 132.52L296.17 152.32L330.47 132.52L330.47 124.35L316.31 124.35" stroke="none" fill="#0D92FF" fill-rule="nonzero" />
        <path d="M316.31 124.35L296.17 112.72L276.03 124.35L261.88 124.35L261.88 132.52L296.17 152.32L330.47 132.52L330.47 124.35L316.31 124.35" stroke="none" fill="#FFFFFF" fill-rule="nonzero" fill-opacity="0.21960784" />
        <path d="M261.88 124.35L296.17 144.15L330.47 124.35L296.17 104.55L261.88 124.35" stroke="none" fill="#0D92FF" fill-rule="nonzero" />
        <path d="M119.84 124.35L99.7 112.72L79.56 124.35L65.4 124.35L65.4 132.52L99.7 152.32L134 132.52L134 124.35L119.84 124.35" stroke="none" fill="#0D92FF" fill-rule="nonzero" />
        <path d="M119.84 124.35L99.7 112.72L79.56 124.35L65.4 124.35L65.4 132.52L99.7 152.32L134 132.52L134 124.35L119.84 124.35" stroke="none" fill="#FFFFFF" fill-rule="nonzero" fill-opacity="0.21960784" />
        <path d="M65.4 124.35L99.7 144.15L134 124.35L99.7 104.55L65.4 124.35" stroke="none" fill="#0D92FF" fill-rule="nonzero" />
        <path d="M166.29001 185.3C 166.29001 173.94502 180.48257 164.74 197.99 164.74C 215.49744 164.74 229.69 173.94502 229.69 185.3C 229.69 196.65498 215.49744 205.86 197.99 205.86C 180.48257 205.86 166.29001 196.65498 166.29001 185.3" stroke="none" fill="#000000" fill-rule="nonzero" fill-opacity="0.08627451" />
        <path d="M281.57 123.59C 281.57 118.35986 288.10666 114.119995 296.17 114.119995C 304.23337 114.119995 310.77002 118.35986 310.77002 123.59C 310.77002 128.82013 304.23337 133.06 296.17 133.06C 288.10666 133.06 281.57 128.82013 281.57 123.59" stroke="none" fill="#000000" fill-rule="nonzero" fill-opacity="0.08627451" />
        <path d="M83.89 123.59C 83.89 118.35986 90.426636 114.119995 98.49 114.119995C 106.55336 114.119995 113.09 118.35986 113.09 123.59C 113.09 128.82013 106.55336 133.06 98.49 133.06C 90.426636 133.06 83.89 128.82013 83.89 123.59" stroke="none" fill="#000000" fill-rule="nonzero" fill-opacity="0.08627451" />
        <path d="M150.73 120.04L197.99 96.42L245.25 120.04L197.99 153.66L150.73 120.04" stroke="none" fill="#0D92FF" fill-rule="nonzero" />
        <path d="M150.73 109.86L197.99 139.26L197.99 46.08L150.73 109.86" stroke="none" fill="#5DB6FF" fill-rule="nonzero" />
        <path d="M245.25 109.86L197.99 139.26L197.99 46.08L245.25 109.86" stroke="none" fill="#5DB6FF" fill-rule="nonzero" />
        <path d="M245.25 109.86L197.99 139.26L197.99 46.08L245.25 109.86" stroke="none" fill="#FFFFFF" fill-rule="nonzero" fill-opacity="0.4392157" />
        <path d="M150.73 120.04L197.99 153.66L197.99 185.94L150.73 120.04" stroke="none" fill="#5DB6FF" fill-rule="nonzero" />
        <path d="M245.25 120.04L197.99 153.66L197.99 185.94L245.25 120.04" stroke="none" fill="#5DB6FF" fill-rule="nonzero" />
        <path d="M245.25 120.04L197.99 153.66L197.99 185.94L245.25 120.04" stroke="none" fill="#FFFFFF" fill-rule="nonzero" fill-opacity="0.4392157" />
        <path d="M272.6 91.2L296.59 79.2L320.58 91.2L296.59 108.27L272.6 91.2" stroke="none" fill="#0D92FF" fill-rule="nonzero" />
        <path d="M272.6 86.03L296.59 100.95L296.59 53.65L272.6 86.03" stroke="none" fill="#5DB6FF" fill-rule="nonzero" />
        <path d="M320.58 86.03L296.59 100.95L296.59 53.65L320.58 86.03" stroke="none" fill="#5DB6FF" fill-rule="nonzero" />
        <path d="M320.58 86.03L296.59 100.95L296.59 53.65L320.58 86.03" stroke="none" fill="#FFFFFF" fill-rule="nonzero" fill-opacity="0.4392157" />
        <path d="M272.6 91.2L296.59 108.27L296.59 124.65L272.6 91.2" stroke="none" fill="#5DB6FF" fill-rule="nonzero" />
        <path d="M320.58 91.2L296.59 108.27L296.59 124.65L320.58 91.2" stroke="none" fill="#5DB6FF" fill-rule="nonzero" />
        <path d="M320.58 91.2L296.59 108.27L296.59 124.65L320.58 91.2" stroke="none" fill="#FFFFFF" fill-rule="nonzero" fill-opacity="0.4392157" />
        <path d="M75.71 91.2L99.7 79.2L123.69 91.2L99.7 108.27L75.71 91.2" stroke="none" fill="#0D92FF" fill-rule="nonzero" />
        <path d="M75.71 86.03L99.7 100.95L99.7 53.65L75.71 86.03" stroke="none" fill="#5DB6FF" fill-rule="nonzero" />
        <path d="M123.69 86.03L99.7 100.95L99.7 53.65L123.69 86.03" stroke="none" fill="#5DB6FF" fill-rule="nonzero" />
        <path d="M123.69 86.03L99.7 100.95L99.7 53.65L123.69 86.03" stroke="none" fill="#FFFFFF" fill-rule="nonzero" fill-opacity="0.4392157" />
        <path d="M75.71 91.2L99.7 108.27L99.7 124.65L75.71 91.2" stroke="none" fill="#5DB6FF" fill-rule="nonzero" />
        <path d="M123.69 91.2L99.7 108.27L99.7 124.65L123.69 91.2" stroke="none" fill="#5DB6FF" fill-rule="nonzero" />
        <path d="M123.69 91.2L99.7 108.27L99.7 124.65L123.69 91.2" stroke="none" fill="#FFFFFF" fill-rule="nonzero" fill-opacity="0.4392157" />
	</g>
</g>
</svg>