<svg xmlns="http://www.w3.org/2000/svg" width="16" height="16"><g color="#000" font-family="sans-serif" font-weight="400"><path style="line-height:normal;text-indent:0;text-align:start;text-decoration-line:none;text-decoration-style:solid;text-decoration-color:#000;text-transform:none;block-progression:tb;isolation:auto;mix-blend-mode:normal" fill="#249fe6" d="M7.973 1A2.977 2.977 0 0 0 5 3.973v2.054C3.794 6.942 3 8.374 3 10c0 2.756 2.244 5 5 5s5-2.244 5-5a5.006 5.006 0 0 0-4.92-4.996A.5.5 0 0 0 8 5c-.712 0-1.386.154-2 .424V3.973C6 2.872 6.872 2 7.973 2h.054C9.128 2 10 2.872 10 3.973a.5.5 0 0 0 1.002 0A2.98 2.98 0 0 0 8.027 1h-.054zM8 6c2.215 0 4 1.785 4 4s-1.785 4-4 4-4-1.785-4-4a3.99 3.99 0 0 1 1.738-3.299.5.5 0 0 0 .041-.025c.055-.037.114-.062.17-.096.128-.077.256-.152.393-.215.093-.043.19-.076.287-.111.134-.05.271-.092.412-.127A3.984 3.984 0 0 1 8 6zm0 2c-.822 0-1.5.678-1.5 1.5 0 .411.169.79.44 1.06.155.156.348.273.56.348V13h1v-2.092c.213-.075.407-.192.563-.347A1.5 1.5 0 0 0 8 8zm0 1c.286 0 .5.214.5.5a.495.495 0 0 1-.5.5.495.495 0 0 1-.5-.5c0-.286.214-.5.5-.5z" overflow="visible" transform="translate(0 .002)"/><path style="line-height:normal;text-indent:0;text-align:start;text-decoration-line:none;text-decoration-style:solid;text-decoration-color:#000;text-transform:none;block-progression:tb;isolation:auto;mix-blend-mode:normal" fill="#c2e4f8" d="M8 6c2.215 0 4 1.785 4 4s-1.785 4-4 4-4-1.785-4-4a3.99 3.99 0 0 1 1.78-3.324c.054-.037.113-.062.17-.096.127-.077.255-.152.392-.215.093-.043.19-.076.287-.111.134-.05.271-.092.412-.127A3.985 3.985 0 0 1 8 6Zm0 2c-.822 0-1.5.678-1.5 1.5 0 .411.169.79.44 1.06.155.156.348.273.56.348V13h1v-2.092c.213-.075.407-.192.563-.347A1.5 1.5 0 0 0 8 8Z" overflow="visible" transform="translate(0 .002)"/></g></svg>